<svg width="36" height="23" viewBox="0 0 36 23" fill="none" xmlns="http://www.w3.org/2000/svg">
<path fill-rule="evenodd" clip-rule="evenodd" d="M4.77067 0.0170436C3.95409 0.121707 2.81996 0.618041 2.13304 1.1713C1.54845 1.64216 0.81559 2.47947 0.81559 2.67647C0.81559 2.71351 0.792555 2.74377 0.764395 2.74377C0.705037 2.74377 0.359648 3.47604 0.245298 3.8445C0.202394 3.98287 0.135126 4.1527 0.0958913 4.22189C0.00229819 4.38694 -0.0407965 17.7239 0.0503919 18.2991C0.174803 19.0837 0.181005 19.103 0.549492 19.8522C1.25641 21.2895 2.50893 22.3206 4.20114 22.8583C4.48388 22.9481 5.50936 22.961 13.8357 22.9794L23.1539 23V22.401V21.8021H28.9441H34.7344V22.3996V22.9972H35.3672H36V20.4498V17.9024H29.5756H23.1513L23.1684 16.6287L23.1855 15.355L24.0082 15.3235C24.9551 15.2874 25.1448 15.2144 25.4628 14.7647L25.6535 14.495V11.4866V8.47837L25.4637 8.21124C25.1602 7.78429 24.9015 7.68667 23.9765 7.64987L23.1855 7.61842L23.1469 6.3919C23.104 5.02517 23.0483 4.60878 22.8115 3.88161C22.2943 2.29341 20.9684 0.907313 19.4203 0.336129C19.1941 0.252725 18.9093 0.145231 18.7875 0.0974283C18.6043 0.0254721 17.39 0.00886667 11.7633 0.00157041C8.02175 -0.00333569 4.87509 0.00364621 4.77067 0.0170436ZM18.1674 1.30112C19.2152 1.51013 20.3861 2.23787 20.9114 3.00643C21.0136 3.15601 21.1297 3.31275 21.1695 3.35464C21.2715 3.46245 21.6248 4.32246 21.7132 4.67828C21.7675 4.89673 21.7926 7.22241 21.8069 13.3579L21.8264 21.7392H13.4169H5.00734L4.39276 21.5414C2.72536 21.005 1.48435 19.5796 1.27894 17.9653C1.25033 17.7404 1.24116 14.6411 1.25856 11.0779L1.2902 4.59928L1.50586 4.09609C1.8815 3.21979 2.4728 2.49356 3.22268 1.98735C3.69679 1.66738 4.04724 1.51076 4.61247 1.36629C5.06512 1.25061 5.38197 1.2447 11.4596 1.23961C15.7313 1.23596 17.9425 1.25627 18.1674 1.30112ZM10.5609 5.14619C9.72408 5.28708 9.32553 5.42112 8.50427 5.83782C7.91215 6.13829 7.63826 6.33604 7.09069 6.85842C6.23798 7.67195 5.52726 8.83539 5.30091 9.78843C5.12821 10.5155 5.04291 11.2457 5.07316 11.7383C5.2418 14.4856 6.93932 16.7164 9.51677 17.5779C11.3799 18.2008 13.4524 17.9219 15.0855 16.8288C16.1866 16.0918 17.0171 15.0906 17.456 13.9712C17.5374 13.7636 17.6391 13.5089 17.6818 13.4051C17.8617 12.9688 17.9819 11.9798 17.9452 11.2381C17.9111 10.5489 17.7826 9.78044 17.6556 9.50538C17.6236 9.4362 17.5326 9.20976 17.4532 9.00219C16.8885 7.52483 15.5262 6.18603 13.9148 5.52477C12.9809 5.14147 11.5487 4.97982 10.5609 5.14619ZM12.5859 6.48083C13.4503 6.6745 13.592 6.73514 14.4007 7.25801C14.8633 7.55703 15.2554 7.92902 15.7088 8.499C15.9101 8.75192 16.3224 9.56344 16.4759 10.0086C16.5676 10.2748 16.699 11.1573 16.6991 11.5083C16.6992 11.8881 16.4869 13.0493 16.3832 13.2362C16.3509 13.2945 16.2503 13.5044 16.1598 13.7026C15.2787 15.631 13.0729 16.8562 10.9571 16.5924C9.77243 16.4446 8.76043 15.956 7.89158 15.1123C6.37359 13.6382 5.94505 11.2812 6.84364 9.34814C7.38527 8.18306 8.49478 7.14542 9.67282 6.7023C10.0058 6.57707 10.3335 6.49587 10.9406 6.38819C11.3121 6.32233 12.0687 6.36491 12.5859 6.48083ZM24.3879 11.4867V14.0341L23.7709 14.0521L23.1539 14.0701V11.4867V8.90332L23.7709 8.92131L24.3879 8.9393V11.4867ZM34.7208 19.8365L34.7027 20.4498L28.9283 20.4658L23.1539 20.4819V19.8525V19.2232H28.9464H34.7389L34.7208 19.8365Z" fill="white"/>
</svg>
