<svg width="31" height="39" viewBox="0 0 31 39" fill="none" xmlns="http://www.w3.org/2000/svg">
<path fill-rule="evenodd" clip-rule="evenodd" d="M17.9184 0.306068C16.5026 0.94428 15.4034 1.71959 14.2486 2.89452C12.128 5.05201 11.1362 7.39068 10.9634 10.6407C10.8969 11.8919 10.8251 12.1797 10.4749 12.5982C10.0439 13.1132 9.13231 13.3146 8.47825 13.0392C8.30739 12.9673 7.70546 12.4276 6.93125 11.6523C6.23413 10.9542 5.65135 10.3981 5.63614 10.4166C5.44811 10.644 2.73804 14.4852 2.4344 14.9545C0.269052 18.3022 -0.503956 22.5745 0.326104 26.6079C1.42826 31.964 5.33053 36.4058 10.4769 38.1625C17.8619 40.6832 25.872 37.3557 29.3845 30.3078C30.7555 27.557 31.3227 24.0297 30.8183 21.3919C30.4978 19.7162 29.6172 17.6515 28.5199 16.003C27.9113 15.0888 27.6537 14.7657 25.9105 12.7311C22.5608 8.8212 19.8911 4.30812 18.9406 0.948778C18.796 0.437447 18.6685 0.0107521 18.6574 0.000534637C18.6463 -0.00968285 18.3137 0.127796 17.9184 0.306068ZM18.1844 5.19384C18.9372 6.77061 19.5099 7.78565 20.5264 9.34443C21.8273 11.3394 22.6962 12.463 25.468 15.7347C26.9787 17.518 28.0123 19.4481 28.4949 21.3873C28.6713 22.0963 28.6952 22.3429 28.695 23.4507C28.6947 24.7901 28.6141 25.4698 28.3108 26.6906C27.1693 31.284 23.4284 35.0897 18.902 36.2619C13.0803 37.7698 7.16105 35.3277 4.07999 30.1468C2.43046 27.3732 1.85941 23.7393 2.56659 20.515C2.97359 18.659 3.70075 17.0913 5.05056 15.1593L5.91164 13.9269L6.43609 14.3829C7.31911 15.1507 8.067 15.4444 9.13889 15.4444C10.2621 15.4444 11.0638 15.1405 11.8545 14.415C12.818 13.5309 13.1287 12.7285 13.2273 10.8694C13.3447 8.65696 13.7208 7.40463 14.7276 5.87506C15.1418 5.24577 16.0036 4.31346 16.7456 3.69202L17.2752 3.2484L17.4192 3.57048C17.4984 3.74761 17.8427 4.47816 18.1844 5.19384ZM10.6747 19.4011C9.96653 19.6667 9.49202 20.1125 9.16446 20.82C8.97295 21.2337 8.9526 21.3579 8.9523 22.1163C8.95184 23.0973 9.06981 23.5222 9.5008 24.0928C10.419 25.3083 12.5629 25.4162 13.6679 24.3027C14.5269 23.4371 14.6973 21.6701 14.0323 20.5266C13.7834 20.0987 13.3051 19.6674 12.8616 19.471C12.3368 19.2387 11.2043 19.2025 10.6747 19.4011ZM14.2884 24.569C12.365 27.4068 10.7739 29.7744 10.7526 29.8303C10.7213 29.9124 10.9476 29.9319 11.9288 29.9319H13.1437L13.3287 29.6841C13.5925 29.3308 20.264 19.4758 20.264 19.4395C20.264 19.423 19.7064 19.4094 19.0248 19.4094H17.7854L14.2884 24.569ZM12.0115 21.0057C12.4171 21.4144 12.4277 22.8564 12.0285 23.321C11.8508 23.5277 11.4274 23.4656 11.2348 23.2046C10.895 22.7438 11.0086 21.1662 11.3983 20.9371C11.6005 20.8182 11.8535 20.8465 12.0115 21.0057ZM18.317 24.358C17.2669 24.7502 16.6505 25.627 16.5758 26.835C16.4679 28.5758 17.3352 29.7862 18.8426 29.9988C20.2504 30.1974 21.4434 29.5376 21.8951 28.3108C22.0081 28.0037 22.042 27.7172 22.0411 27.0725C22.0402 26.3119 22.0199 26.1895 21.8233 25.7584C21.5694 25.202 21.0408 24.666 20.5106 24.4277C19.9859 24.1918 18.8578 24.156 18.317 24.358ZM19.5815 25.8898C19.8408 26.0297 19.984 26.5831 19.9466 27.3012C19.9057 28.0863 19.757 28.3556 19.3447 28.3916C18.9101 28.4294 18.6747 27.995 18.6755 27.1565C18.6764 26.1266 19.0506 25.6035 19.5815 25.8898Z" fill="white"/>
</svg>
