<svg width="36" height="36" viewBox="0 0 36 36" fill="none" xmlns="http://www.w3.org/2000/svg">
<path fill-rule="evenodd" clip-rule="evenodd" d="M23.1767 0.0479762C23.0162 0.105724 22.6029 0.36105 22.2019 0.650231C19.5602 2.55542 18.1687 5.95459 18.7183 9.16015C18.7923 9.59127 18.9615 10.2491 19.0805 10.5674C19.1326 10.7067 19.1752 10.8486 19.1752 10.8827C19.1752 10.9168 19.0994 11.019 19.0066 11.1098C18.7539 11.3575 18.6866 11.5135 18.7034 11.8129C18.7142 12.0052 18.7396 12.095 18.8167 12.2122C19.0051 12.499 19.3914 12.6436 19.7272 12.553C19.8643 12.5161 19.9728 12.4288 20.3657 12.0399C20.6427 11.7656 20.8674 11.5098 20.9074 11.4231C21.0042 11.2132 20.9948 10.9497 20.881 10.6823C20.1385 8.93782 20.0435 7.21088 20.5972 5.52154C20.8364 4.79186 21.2332 4.03829 21.7115 3.40551C21.9523 3.08692 22.5467 2.44055 22.5989 2.44055C22.6163 2.44055 22.6351 3.70596 22.6407 5.25251L22.6508 8.0645L22.7626 8.22507C22.8502 8.35087 23.2967 8.68128 24.8222 9.74888C25.8934 10.4986 26.8527 11.1527 26.9538 11.2024C27.1785 11.3127 27.4521 11.3223 27.639 11.2263C27.9388 11.0724 31.5985 8.49822 31.7593 8.32816C31.8899 8.19007 31.9403 8.1021 31.9708 7.95886C31.9975 7.83355 32.0113 6.87907 32.0123 5.09645L32.0138 2.42203L32.4077 2.83149C33.7951 4.27365 34.4942 6.21121 34.3615 8.24623C34.2488 9.97417 33.5439 11.5258 32.3043 12.7743C31.0597 14.0278 29.5295 14.7308 27.7923 14.8473C27.0803 14.895 26.4736 14.8168 25.3467 14.5322C24.4227 14.2988 24.5895 14.2078 22.9698 15.8281C22.235 16.5631 21.5896 17.2395 21.5356 17.3312C21.3186 17.6992 21.4516 18.1812 21.836 18.4206C21.9821 18.5116 22.0513 18.5303 22.2396 18.5299C22.384 18.5295 22.5138 18.5053 22.5956 18.4633C22.6664 18.427 23.2312 17.8889 23.8507 17.2677L24.9771 16.1381L25.3954 16.2348C26.4798 16.4856 27.2222 16.5545 28.0514 16.4813C31.0839 16.2135 33.7612 14.377 35.1012 11.6453C35.5207 10.7902 35.7897 9.92638 35.9316 8.97835C36.0214 8.37817 36.0231 7.15225 35.9348 6.54999C35.6434 4.56202 34.7168 2.7507 33.2947 1.38884C32.691 0.810731 31.8154 0.184177 31.4161 0.0446425C31.0585 -0.080335 30.6469 0.0967967 30.4534 0.458839C30.3742 0.607004 30.3742 0.607004 30.3643 3.98543L30.3543 7.3639L28.9851 8.31571C28.232 8.83922 27.547 9.31679 27.4627 9.37695L27.3096 9.48633L25.7801 8.41895L24.2506 7.35157L24.2504 4.03485C24.2503 1.74877 24.2377 0.672086 24.21 0.569963C24.1533 0.36142 23.8735 0.0949817 23.6522 0.038864C23.439 -0.0152163 23.3476 -0.0134754 23.1767 0.0479762ZM3.69794 0.403425C2.31657 0.599374 1.15684 1.43495 0.536423 2.68132C0.220091 3.31684 0.103908 3.89716 0.133588 4.69355C0.164041 5.51076 0.376179 6.16735 0.826531 6.83836C0.977727 7.06361 2.44287 8.56178 7.55614 13.7196C13.1815 19.3941 14.0882 20.3233 14.0619 20.3871C13.9086 20.7589 14.2197 21.3014 14.6453 21.4042C14.8522 21.4542 15.0403 21.4341 15.2202 21.3427C15.2816 21.3114 15.659 20.959 16.0588 20.5594L16.7857 19.8328L21.0122 24.0893L25.2386 28.3458L25.6519 29.4967C25.8792 30.1297 26.0943 30.7059 26.1299 30.7772C26.1654 30.8485 27.317 32.0334 28.689 33.4104C31.3316 36.0628 31.2618 36.0005 31.5922 35.9998C31.9143 35.9992 31.9038 36.008 33.6595 34.2464C34.5763 33.3264 35.357 32.5146 35.3942 32.4423C35.5013 32.2345 35.5183 32.0653 35.4544 31.8439C35.3989 31.6517 35.312 31.5594 32.8953 29.1292C31.5194 27.7456 30.3695 26.6 30.3401 26.5834C30.3106 26.5668 29.7446 26.3545 29.0822 26.1116L27.8779 25.67L23.6558 21.4179L19.4337 17.1657L20.1463 16.4428C20.5637 16.0192 20.8909 15.6553 20.9364 15.5639C21.1932 15.0485 20.8089 14.4036 20.2423 14.3992C20.1444 14.3985 20.0276 14.4096 19.9828 14.4239C19.9115 14.4467 19.0813 13.6251 13.3503 7.85944C8.32352 2.80233 6.73933 1.22956 6.54179 1.09991C5.82388 0.628747 5.16473 0.414982 4.33755 0.385127C4.11368 0.377052 3.82585 0.385312 3.69794 0.403425ZM4.75804 2.0741C4.86929 2.09544 5.11755 2.18819 5.30971 2.28027L5.65911 2.44763L12.1782 9.00946L18.6974 15.5713L16.9502 17.3309L15.2031 19.0906L8.76494 12.6084C4.08359 7.895 2.28053 6.0566 2.15718 5.87125C1.15452 4.36444 2.09002 2.2822 3.88109 2.0341C4.13398 1.99905 4.43917 2.01298 4.75804 2.0741ZM4.04086 3.69755C3.53096 3.82256 3.25387 4.37 3.46781 4.82972C3.51573 4.93277 5.29394 6.7452 9.30558 10.7801C15.0526 16.5603 15.0751 16.5824 15.2675 16.627C15.7776 16.7454 16.2681 16.3552 16.2681 15.831C16.2681 15.7272 16.2377 15.5806 16.1991 15.4976C16.1512 15.3946 14.3703 13.5793 10.3613 9.54664L4.59253 3.74381L4.39764 3.70336C4.18374 3.65899 4.19731 3.65921 4.04086 3.69755ZM27.0329 27.1055C27.0764 27.1276 27.6391 27.3378 28.2834 27.5725L29.4548 27.9992L31.4774 30.0363L33.5001 32.0734L32.5442 33.0367L31.5883 33.9999L29.5635 31.9609L27.5387 29.9219L27.1571 28.8586C26.9473 28.2738 26.7365 27.7037 26.6887 27.5916C26.611 27.4095 26.1435 26.9261 22.2733 23.027L17.9447 18.6662L18.1085 18.498L18.2724 18.33L22.6131 22.6975C25.0005 25.0997 26.9894 27.0833 27.0329 27.1055ZM11.1023 19.1426C10.9142 19.2307 0.927635 29.2886 0.684198 29.6352C0.45014 29.9685 0.209573 30.4934 0.0976558 30.9151C0.014132 31.2298 0.00133306 31.3524 4.58163e-05 31.8514C-0.00102076 32.2511 0.0164858 32.5048 0.0576776 32.6865C0.407367 34.2287 1.57898 35.388 3.10919 35.7059C3.85722 35.8613 4.77735 35.7541 5.47253 35.4306C6.11273 35.1328 5.94852 35.2896 12.1422 29.0585C16.1495 25.0269 18.023 23.1176 18.0727 23.0146C18.1703 22.8125 18.1685 22.5143 18.0685 22.3064C17.8795 21.9131 17.4075 21.7446 17.0053 21.9268C16.8757 21.9855 15.5703 23.2786 10.992 27.8838C5.26643 33.6429 5.13844 33.7686 4.86837 33.8991C4.01386 34.3118 3.02912 34.1747 2.35037 33.5483C1.55 32.8097 1.38181 31.6612 1.93408 30.7056C2.0222 30.5532 3.36877 29.1712 7.09781 25.4062C11.2153 21.249 12.1506 20.2867 12.1874 20.1702C12.2605 19.938 12.2193 19.617 12.0928 19.4331C11.8776 19.1204 11.4302 18.9892 11.1023 19.1426ZM3.49576 30.9432C3.28098 31.026 3.09219 31.1956 2.97241 31.4134C2.87936 31.5826 2.86395 31.6501 2.86398 31.8884C2.86402 32.1274 2.87943 32.1945 2.97432 32.3686C3.30735 32.9798 4.12313 33.075 4.58691 32.5569C4.66473 32.4699 4.75436 32.3381 4.7861 32.264C4.86087 32.0892 4.86087 31.6876 4.7861 31.5128C4.70658 31.327 4.48018 31.0835 4.30081 30.9909C4.10842 30.8915 3.69352 30.867 3.49576 30.9432Z" fill="white"/>
</svg>
