<svg width="24" height="24" viewBox="0 0 24 24" fill="none" xmlns="http://www.w3.org/2000/svg">
<g opacity="0.5" clip-path="url(#clip0_79_1342)">
<path d="M23.7812 19.281L16.5002 12L23.7812 4.71899C23.9207 4.57777 23.999 4.38726 23.999 4.18874C23.999 3.99023 23.9207 3.79971 23.7812 3.65849L20.3417 0.218992C20.2722 0.149193 20.1896 0.0938108 20.0986 0.0560214C20.0076 0.0182319 19.91 -0.0012207 19.8115 -0.0012207C19.713 -0.0012207 19.6154 0.0182319 19.5244 0.0560214C19.4334 0.0938108 19.3508 0.149193 19.2812 0.218992L12.0002 7.49999L4.71924 0.218992C4.57859 0.078389 4.38786 -0.000597575 4.18899 -0.000597575C3.99011 -0.000597575 3.79938 0.078389 3.65874 0.218992L0.219236 3.65849C0.149437 3.72803 0.0940549 3.81067 0.0562655 3.90166C0.0184761 3.99266 -0.000976562 4.09021 -0.000976562 4.18874C-0.000976562 4.28727 0.0184761 4.38483 0.0562655 4.47582C0.0940549 4.56681 0.149437 4.64945 0.219236 4.71899L7.50024 12L0.219236 19.281C0.0786331 19.4216 -0.000353434 19.6124 -0.000353434 19.8112C-0.000353434 20.0101 0.0786331 20.2008 0.219236 20.3415L3.65874 23.781C3.72828 23.8508 3.81091 23.9062 3.90191 23.944C3.9929 23.9818 4.09046 24.0012 4.18899 24.0012C4.28751 24.0012 4.38507 23.9818 4.47607 23.944C4.56706 23.9062 4.6497 23.8508 4.71924 23.781L12.0002 16.5L19.2812 23.781C19.4219 23.9216 19.6126 24.0006 19.8115 24.0006C20.0104 24.0006 20.2011 23.9216 20.3417 23.781L23.7812 20.3415C23.851 20.272 23.9064 20.1893 23.9442 20.0983C23.982 20.0073 24.0014 19.9098 24.0014 19.8112C24.0014 19.7127 23.982 19.6152 23.9442 19.5242C23.9064 19.4332 23.851 19.3505 23.7812 19.281Z" fill="white"/>
</g>
<defs>
<clipPath id="clip0_79_1342">
<rect width="24" height="24" fill="white"/>
</clipPath>
</defs>
</svg>
