<svg width="18" height="17" viewBox="0 0 18 17" fill="none" xmlns="http://www.w3.org/2000/svg">
<path fill-rule="evenodd" clip-rule="evenodd" d="M3.94943 0.0222262C2.63133 0.198424 1.4681 1.04122 0.883913 2.24333C0.811389 2.39259 0.715255 2.6292 0.670338 2.76914C0.487453 3.33868 0.494296 3.11482 0.494296 8.51915C0.494296 13.2923 0.497412 13.554 0.557437 13.8282C0.737984 14.6524 1.11846 15.3274 1.73377 15.9151C2.2888 16.4451 2.90947 16.7688 3.69537 16.938C3.96691 16.9965 4.26869 17 8.99663 17C13.7628 17 14.0242 16.9969 14.2979 16.9368C15.1209 16.756 15.795 16.3749 16.3818 15.7587C16.898 15.2166 17.2123 14.6216 17.4015 13.8282C17.4581 13.5909 17.463 13.2439 17.4736 8.68877C17.4816 5.27055 17.4738 3.71723 17.4477 3.51545C17.3307 2.61061 16.9613 1.8413 16.3343 1.19699C15.8162 0.664532 15.1796 0.299109 14.4164 0.0961453L14.0777 0.00604475L9.11519 0.000549174C6.3858 -0.00247001 4.06121 0.007266 3.94943 0.0222262ZM14.2328 1.02809C15.2654 1.32193 16.0309 2.01818 16.3669 2.96915C16.5405 3.46023 16.5385 3.3914 16.5262 8.60396L16.5148 13.472L16.4394 13.7541C16.1409 14.8725 15.3184 15.6902 14.2065 15.9741L13.9083 16.0501H8.97969H4.05105L3.75293 15.9741C2.63258 15.688 1.80433 14.8586 1.51874 13.7366L1.44276 13.438V8.50219V3.56634L1.51874 3.26778C1.83309 2.03276 2.79789 1.16226 4.06169 0.973336C4.16761 0.957528 6.4417 0.94691 9.11519 0.949793L13.9761 0.955051L14.2328 1.02809ZM13.4676 2.66913C13.1031 2.71805 12.7507 2.99571 12.5805 3.36812C12.3972 3.769 12.4958 4.28565 12.8168 4.60714C13.0728 4.86353 13.2969 4.9572 13.6543 4.9572C13.9003 4.9572 13.97 4.94353 14.1333 4.86323C14.3661 4.74874 14.5784 4.52515 14.6989 4.2677C14.7729 4.10959 14.789 4.02671 14.789 3.8038C14.7891 3.574 14.7743 3.50222 14.6924 3.33529C14.5559 3.05688 14.2901 2.7938 14.0775 2.7267C13.8592 2.6578 13.6789 2.64077 13.4676 2.66913ZM8.28528 4.55334C6.37652 4.89169 4.98258 6.55831 4.98258 8.50219C4.98258 10.7186 6.76655 12.5052 8.97969 12.5052C11.4803 12.5052 13.3576 10.2165 12.8918 7.73593C12.6303 6.34307 11.5642 5.12987 10.2161 4.69097C9.6381 4.50283 8.87662 4.44855 8.28528 4.55334ZM9.80273 5.56524C10.7361 5.8409 11.4489 6.49033 11.8033 7.38798C12.0259 7.95189 12.0686 8.66346 11.9153 9.25478C11.6379 10.3247 10.8751 11.1145 9.80273 11.4422C9.53424 11.5243 9.45278 11.5333 8.97969 11.5333C8.50455 11.5333 8.42582 11.5245 8.15144 11.4407C6.81881 11.0338 5.93156 9.8593 5.93156 8.50219C5.93156 7.04396 6.97419 5.78554 8.42078 5.4978C8.79041 5.42425 9.4313 5.45553 9.80273 5.56524Z" fill="white"/>
</svg>
