<svg width="22" height="20" viewBox="0 0 22 20" fill="none" xmlns="http://www.w3.org/2000/svg">
<path d="M20.9613 0.374289C20.5224 -0.0073429 19.9192 -0.105548 19.3907 0.118546L1.49222 7.6957C0.704892 8.03551 0.329366 8.98029 0.653431 9.80583C0.821043 10.2328 1.15468 10.5642 1.57027 10.7165L5.4315 12.1241L7.52405 19.3791C7.52826 19.3938 7.54119 19.4028 7.54661 19.417C7.56826 19.4749 7.5999 19.5282 7.63984 19.5741C7.65472 19.5925 7.67094 19.6099 7.68825 19.6258C7.74038 19.6712 7.80093 19.7048 7.86605 19.7244C7.87598 19.7274 7.88263 19.7367 7.89275 19.7391L7.89861 19.7389L7.90153 19.7402C7.93488 19.748 7.96891 19.7517 8.00299 19.7514C8.04756 19.7498 8.09176 19.7417 8.1342 19.7274C8.14243 19.7251 8.15072 19.7257 8.15877 19.7229C8.23127 19.6961 8.29675 19.6521 8.3501 19.5941C8.35632 19.5876 8.36577 19.5865 8.37175 19.5796L11.3823 16.0963L15.7742 19.6624C16.0411 19.8812 16.3701 20.0001 16.7088 20C17.4414 19.9999 18.0738 19.4617 18.2248 18.71L21.4842 1.93125C21.5971 1.35084 21.3961 0.752405 20.9613 0.374289ZM8.61667 13.5L7.91019 17.1001L6.43686 11.9905L13.7442 8.00048L8.75227 13.2351C8.68325 13.3075 8.63612 13.3997 8.61667 13.5ZM17.2464 18.4993C17.2081 18.6921 17.0769 18.8502 16.9001 18.9167C16.7273 18.9864 16.5322 18.9553 16.3869 18.8348L11.6282 14.9711C11.4222 14.8038 11.1281 14.831 10.9531 15.0335L8.85964 17.4555L9.56491 13.8652L16.7459 6.33412C16.9411 6.12985 16.9414 5.7984 16.7466 5.59381C16.5925 5.43186 16.356 5.39363 16.1626 5.49938L5.80995 11.1525L1.89708 9.7263C1.6838 9.65271 1.53874 9.44511 1.53612 9.20969C1.52582 8.97262 1.65965 8.75466 1.86976 8.6665L19.7653 1.09037C19.9522 1.00719 20.1679 1.04203 20.3223 1.18039C20.476 1.31044 20.5466 1.52021 20.5047 1.72257L17.2464 18.4993Z" fill="white"/>
</svg>
