<svg width="19" height="18" viewBox="0 0 19 18" fill="none" xmlns="http://www.w3.org/2000/svg">
<path d="M0.835878 18C0.774952 18.0003 0.714879 17.9857 0.660909 17.9574C0.606939 17.929 0.560713 17.8879 0.526272 17.8376C0.49183 17.7873 0.47022 17.7293 0.463331 17.6687C0.456441 17.6081 0.464481 17.5468 0.486748 17.49L1.88252 13.8562C0.951455 12.4083 0.457934 10.722 0.461275 9C0.461275 4.03725 4.49425 0 9.45174 0C14.4092 0 18.4422 4.03725 18.4422 9C18.4422 13.9627 14.4092 18 9.45174 18C7.77052 18 6.13351 17.5305 4.70702 16.6395L0.961745 17.9782C0.921393 17.9928 0.878785 18.0002 0.835878 18ZM4.75422 15.8497C4.82615 15.8497 4.89732 15.87 4.95876 15.9105C6.29415 16.7856 7.85568 17.2514 9.45174 17.2507C13.9957 17.2507 17.693 13.5495 17.693 9.00075C17.693 4.452 13.9957 0.75075 9.45174 0.75075C4.90781 0.75075 1.21048 4.452 1.21048 9.00075C1.21048 10.6492 1.69447 12.2407 2.6115 13.6027C2.67967 13.704 2.69391 13.833 2.65045 13.947L1.4787 16.9972L4.62836 15.8715C4.66878 15.8572 4.71134 15.8498 4.75422 15.8497Z" fill="white"/>
<path d="M12.1988 13C11.0218 13 8.76212 11.5907 7.81286 10.6405C6.86359 9.6895 5.45581 7.4275 5.45581 6.25C5.45581 5.038 6.48599 4 7.32886 4H8.07808C8.14795 4.00007 8.21642 4.0197 8.27573 4.05668C8.33504 4.09366 8.38284 4.14651 8.41373 4.20925C8.41448 4.21 8.86551 5.128 9.1607 5.704C9.49335 6.35425 8.86776 7.11925 8.51188 7.48C8.63925 7.807 8.93668 8.455 9.46638 8.98525C9.99608 9.5155 10.6434 9.814 10.9701 9.94075C11.3297 9.58375 12.0939 8.95675 12.7442 9.29125C13.3196 9.5875 14.2359 10.0382 14.2367 10.0382C14.3655 10.102 14.4464 10.2325 14.4464 10.375V11.125C14.4464 11.9695 13.4088 13 12.1988 13ZM7.32886 4.75C6.90555 4.75 6.20503 5.45125 6.20503 6.25C6.20503 7.11925 7.42926 9.1945 8.3433 10.1095C9.34201 11.1092 11.3956 12.25 12.1988 12.25C12.9967 12.25 13.6972 11.5487 13.6972 11.125V10.6082C13.2639 10.3949 12.8321 10.1784 12.4018 9.95875C12.2265 9.86425 11.6938 10.24 11.3559 10.6232C11.3088 10.6764 11.2477 10.7151 11.1795 10.7349C11.1114 10.7547 11.039 10.7547 10.9708 10.735C10.9236 10.7215 9.81402 10.393 8.93668 9.51475C8.05935 8.6365 7.73194 7.52575 7.7177 7.4785C7.698 7.41025 7.69804 7.33781 7.71779 7.26958C7.73755 7.20135 7.77623 7.14012 7.82934 7.093C8.21144 6.75475 8.58455 6.22375 8.49315 6.04525C8.28411 5.638 7.99716 5.0575 7.84582 4.75H7.32886Z" fill="white"/>
</svg>
